<svg width="42" height="43" viewBox="0 0 42 43" fill="none" xmlns="http://www.w3.org/2000/svg">
<path d="M41.8 3.60039V4.70039C40.9333 5.36706 39.9667 6.56706 38.9 8.30039C37.7667 10.1004 36.8 12.2671 36 14.8004C35.2 17.4004 34.8 20.1337 34.8 23.0004C34.8 24.8004 35.1333 26.2671 35.8 27.4004C36.4 28.6004 37.3 29.8671 38.5 31.2004C39.5 32.3337 40.2333 33.3004 40.7 34.1004C41.1667 34.9671 41.4 35.9671 41.4 37.1004C41.4 38.8337 40.9333 40.1671 40 41.1004C39 42.1004 37.7 42.6004 36.1 42.6004C34.3667 42.6004 32.7333 41.8337 31.2 40.3004C29.6667 38.7671 28.4667 36.7004 27.6 34.1004C26.6667 31.5671 26.2 28.9004 26.2 26.1004C26.2 22.0337 26.9 18.2337 28.3 14.7004C29.7 11.2337 31.4 8.30039 33.4 5.90039C35.4 3.50039 37.2333 1.83372 38.9 0.900391H39L41.8 3.60039ZM15.5 3.60039V4.70039C14.6333 5.36706 13.6667 6.56706 12.6 8.30039C11.5333 10.1004 10.6 12.2671 9.8 14.8004C9 17.4004 8.6 20.1337 8.6 23.0004C8.6 24.8004 8.93334 26.2671 9.6 27.4004C10.2 28.6004 11.1 29.8671 12.3 31.2004C13.3 32.3337 14.0333 33.3004 14.5 34.1004C14.9667 34.9671 15.2 35.9671 15.2 37.1004C15.2 38.8337 14.7333 40.1671 13.8 41.1004C12.8 42.1004 11.5 42.6004 9.9 42.6004C8.16667 42.6004 6.53334 41.8337 5 40.3004C3.46667 38.7671 2.26667 36.7004 1.4 34.1004C0.466667 31.5671 0 28.9004 0 26.1004C0 22.0337 0.700001 18.2337 2.1 14.7004C3.5 11.2337 5.2 8.30039 7.2 5.90039C9.2 3.50039 11.0333 1.83372 12.7 0.900391H12.8L15.5 3.60039Z" fill="#141D1C"/>
</svg>
